<?xml version="1.0" encoding="windows-1252" standalone="no"?>
<svg xmlns="http://www.w3.org/2000/svg" xmlns:xlink="http://www.w3.org/1999/xlink" contentStyleType="text/css" height="352px" preserveAspectRatio="none" style="width:116px;height:352px;background:#FFFFFF;" version="1.1" viewBox="0 0 116 352" width="116px" zoomAndPan="magnify"><defs/><g><ellipse cx="58" cy="20" fill="#222222" rx="10" ry="10" style="stroke:#222222;stroke-width:1.0;"/><rect fill="#F1F1F1" height="33.9688" rx="12.5" ry="12.5" style="stroke:#181818;stroke-width:0.5;" width="93" x="11.5" y="50"/><text fill="#000000" font-family="sans-serif" font-size="12" lengthAdjust="spacing" textLength="73" x="21.5" y="71.1387">&#1044;&#1077;&#1081;&#1089;&#1090;&#1074;&#1080;&#1103; 1</text><rect fill="#F1F1F1" height="33.9688" rx="12.5" ry="12.5" style="stroke:#181818;stroke-width:0.5;" width="94" x="11" y="103.9688"/><text fill="#000000" font-family="sans-serif" font-size="12" lengthAdjust="spacing" textLength="74" x="21" y="125.1074">&#1044;&#1077;&#1081;&#1089;&#1090;&#1074;&#1080;&#1103; 2</text><rect fill="#F1F1F1" height="33.9688" rx="12.5" ry="12.5" style="stroke:#181818;stroke-width:0.5;" width="94" x="11" y="157.9375"/><text fill="#000000" font-family="sans-serif" font-size="12" lengthAdjust="spacing" textLength="74" x="21" y="179.0762">&#1044;&#1077;&#1081;&#1089;&#1090;&#1074;&#1080;&#1103; 3</text><rect fill="#F1F1F1" height="33.9688" rx="12.5" ry="12.5" style="stroke:#181818;stroke-width:0.5;" width="29" x="43.5" y="211.9063"/><text fill="#000000" font-family="sans-serif" font-size="12" lengthAdjust="spacing" textLength="9" x="53.5" y="233.0449">...</text><rect fill="#F1F1F1" height="33.9688" rx="12.5" ry="12.5" style="stroke:#181818;stroke-width:0.5;" width="93" x="11.5" y="265.875"/><text fill="#000000" font-family="sans-serif" font-size="12" lengthAdjust="spacing" textLength="73" x="21.5" y="287.0137">&#1044;&#1077;&#1081;&#1089;&#1090;&#1074;&#1080;&#1103; n</text><ellipse cx="58" cy="330.8438" fill="none" rx="11" ry="11" style="stroke:#222222;stroke-width:1.0;"/><ellipse cx="58" cy="330.8438" fill="#222222" rx="6" ry="6" style="stroke:#111111;stroke-width:1.0;"/><line style="stroke:#181818;stroke-width:1.0;" x1="58" x2="58" y1="30" y2="50"/><polygon fill="#181818" points="54,40,58,50,62,40,58,44" style="stroke:#181818;stroke-width:1.0;"/><line style="stroke:#181818;stroke-width:1.0;" x1="58" x2="58" y1="83.9688" y2="103.9688"/><polygon fill="#181818" points="54,93.9688,58,103.9688,62,93.9688,58,97.9688" style="stroke:#181818;stroke-width:1.0;"/><line style="stroke:#181818;stroke-width:1.0;" x1="58" x2="58" y1="137.9375" y2="157.9375"/><polygon fill="#181818" points="54,147.9375,58,157.9375,62,147.9375,58,151.9375" style="stroke:#181818;stroke-width:1.0;"/><line style="stroke:#181818;stroke-width:1.0;" x1="58" x2="58" y1="191.9063" y2="211.9063"/><polygon fill="#181818" points="54,201.9063,58,211.9063,62,201.9063,58,205.9063" style="stroke:#181818;stroke-width:1.0;"/><line style="stroke:#181818;stroke-width:1.0;" x1="58" x2="58" y1="245.875" y2="265.875"/><polygon fill="#181818" points="54,255.875,58,265.875,62,255.875,58,259.875" style="stroke:#181818;stroke-width:1.0;"/><line style="stroke:#181818;stroke-width:1.0;" x1="58" x2="58" y1="299.8438" y2="319.8438"/><polygon fill="#181818" points="54,309.8438,58,319.8438,62,309.8438,58,313.8438" style="stroke:#181818;stroke-width:1.0;"/><!--SRC=[Aov9B2hXuhAwCEN2rWixBpPURBgmwSAEY_qAXjPO18sm2He31VNqzB19vLbpSHMNv1S00000]--></g></svg>