<?xml version="1.0" encoding="windows-1252" standalone="no"?>
<svg xmlns="http://www.w3.org/2000/svg" xmlns:xlink="http://www.w3.org/1999/xlink" contentStyleType="text/css" height="229px" preserveAspectRatio="none" style="width:133px;height:229px;background:#FFFFFF;" version="1.1" viewBox="0 0 133 229" width="133px" zoomAndPan="magnify"><defs/><g><ellipse cx="56.5" cy="20" fill="#222222" rx="10" ry="10" style="stroke:#222222;stroke-width:1.0;"/><rect fill="#F1F1F1" height="33.9688" rx="12.5" ry="12.5" style="stroke:#181818;stroke-width:0.5;" width="82" x="15.5" y="98.4023"/><text fill="#000000" font-family="sans-serif" font-size="12" lengthAdjust="spacing" textLength="62" x="25.5" y="119.541">&#1044;&#1077;&#1081;&#1089;&#1090;&#1074;&#1080;&#1103;</text><polygon fill="#F1F1F1" points="32,50,81,50,93,62,81,74,32,74,20,62,32,50" style="stroke:#181818;stroke-width:0.5;"/><text fill="#000000" font-family="sans-serif" font-size="11" lengthAdjust="spacing" textLength="42" x="60.5" y="84.2104">&#1048;&#1089;&#1090;&#1080;&#1085;&#1072;</text><text fill="#000000" font-family="sans-serif" font-size="11" lengthAdjust="spacing" textLength="49" x="32" y="65.8081">&#1059;&#1089;&#1083;&#1086;&#1074;&#1080;&#1077;</text><polygon fill="#F1F1F1" points="56.5,152.3711,68.5,164.3711,56.5,176.3711,44.5,164.3711,56.5,152.3711" style="stroke:#181818;stroke-width:0.5;"/><ellipse cx="56.5" cy="207.3711" fill="none" rx="11" ry="11" style="stroke:#222222;stroke-width:1.0;"/><ellipse cx="56.5" cy="207.3711" fill="#222222" rx="6" ry="6" style="stroke:#111111;stroke-width:1.0;"/><line style="stroke:#181818;stroke-width:1.0;" x1="56.5" x2="56.5" y1="74" y2="98.4023"/><polygon fill="#181818" points="52.5,88.4023,56.5,98.4023,60.5,88.4023,56.5,92.4023" style="stroke:#181818;stroke-width:1.0;"/><line style="stroke:#181818;stroke-width:1.0;" x1="93" x2="107.5" y1="62" y2="62"/><polygon fill="#181818" points="103.5,105.3867,107.5,115.3867,111.5,105.3867,107.5,109.3867" style="stroke:#181818;stroke-width:1.0;"/><line style="stroke:#181818;stroke-width:1.0;" x1="107.5" x2="107.5" y1="62" y2="164.3711"/><line style="stroke:#181818;stroke-width:1.0;" x1="107.5" x2="68.5" y1="164.3711" y2="164.3711"/><polygon fill="#181818" points="78.5,160.3711,68.5,164.3711,78.5,168.3711,74.5,164.3711" style="stroke:#181818;stroke-width:1.0;"/><line style="stroke:#181818;stroke-width:1.0;" x1="56.5" x2="56.5" y1="132.3711" y2="152.3711"/><polygon fill="#181818" points="52.5,142.3711,56.5,152.3711,60.5,142.3711,56.5,146.3711" style="stroke:#181818;stroke-width:1.0;"/><line style="stroke:#181818;stroke-width:1.0;" x1="56.5" x2="56.5" y1="30" y2="50"/><polygon fill="#181818" points="52.5,40,56.5,50,60.5,40,56.5,44" style="stroke:#181818;stroke-width:1.0;"/><line style="stroke:#181818;stroke-width:1.0;" x1="56.5" x2="56.5" y1="176.3711" y2="196.3711"/><polygon fill="#181818" points="52.5,186.3711,56.5,196.3711,60.5,186.3711,56.5,190.3711" style="stroke:#181818;stroke-width:1.0;"/><!--SRC=[Aov9B2hXuifCKz2uiFXYuuNT5_PTs7HXnuMjcWeb6QbvGD4P5nilDW55zbxOeCcbe61rOSg5hHTsWWM12Y_sMtEbvgLafd5n5PVa5m00]--></g></svg>