<?xml version="1.0" encoding="windows-1252" standalone="no"?>
<svg xmlns="http://www.w3.org/2000/svg" xmlns:xlink="http://www.w3.org/1999/xlink" contentStyleType="text/css" height="212px" preserveAspectRatio="none" style="width:470px;height:212px;background:#FFFFFF;" version="1.1" viewBox="0 0 470 212" width="470px" zoomAndPan="magnify"><defs/><g><ellipse cx="242.5" cy="20" fill="#222222" rx="10" ry="10" style="stroke:#222222;stroke-width:1.0;"/><polygon fill="#F1F1F1" points="32,50,92,50,104,62,92,74,32,74,20,62,32,50" style="stroke:#181818;stroke-width:0.5;"/><text fill="#000000" font-family="sans-serif" font-size="11" lengthAdjust="spacing" textLength="42" x="66" y="84.2104">&#1048;&#1089;&#1090;&#1080;&#1085;&#1072;</text><text fill="#000000" font-family="sans-serif" font-size="11" lengthAdjust="spacing" textLength="60" x="32" y="65.8081">&#1059;&#1089;&#1083;&#1086;&#1074;&#1080;&#1077; 1</text><rect fill="#F1F1F1" height="33.9688" rx="12.5" ry="12.5" style="stroke:#181818;stroke-width:0.5;" width="93" x="15.5" y="105.7104"/><text fill="#000000" font-family="sans-serif" font-size="12" lengthAdjust="spacing" textLength="73" x="25.5" y="126.8491">&#1044;&#1077;&#1081;&#1089;&#1090;&#1074;&#1080;&#1103; 1</text><polygon fill="#F1F1F1" points="140.5,50,200.5,50,212.5,62,200.5,74,140.5,74,128.5,62,140.5,50" style="stroke:#181818;stroke-width:0.5;"/><text fill="#000000" font-family="sans-serif" font-size="11" lengthAdjust="spacing" textLength="42" x="174.5" y="84.2104">&#1048;&#1089;&#1090;&#1080;&#1085;&#1072;</text><text fill="#000000" font-family="sans-serif" font-size="11" lengthAdjust="spacing" textLength="60" x="140.5" y="65.8081">&#1059;&#1089;&#1083;&#1086;&#1074;&#1080;&#1077; 2</text><rect fill="#F1F1F1" height="33.9688" rx="12.5" ry="12.5" style="stroke:#181818;stroke-width:0.5;" width="94" x="123.5" y="105.7104"/><text fill="#000000" font-family="sans-serif" font-size="12" lengthAdjust="spacing" textLength="74" x="133.5" y="126.8491">&#1044;&#1077;&#1081;&#1089;&#1090;&#1074;&#1080;&#1103; 2</text><polygon fill="#F1F1F1" points="262.5,50,286.5,50,298.5,62,286.5,74,262.5,74,250.5,62,262.5,50" style="stroke:#181818;stroke-width:0.5;"/><text fill="#000000" font-family="sans-serif" font-size="11" lengthAdjust="spacing" textLength="42" x="278.5" y="84.2104">&#1048;&#1089;&#1090;&#1080;&#1085;&#1072;</text><text fill="#000000" font-family="sans-serif" font-size="11" lengthAdjust="spacing" textLength="9" x="270" y="65.8081">...</text><rect fill="#F1F1F1" height="33.9688" rx="12.5" ry="12.5" style="stroke:#181818;stroke-width:0.5;" width="94" x="227.5" y="105.7104"/><text fill="#000000" font-family="sans-serif" font-size="12" lengthAdjust="spacing" textLength="74" x="237.5" y="126.8491">&#1044;&#1077;&#1081;&#1089;&#1090;&#1074;&#1080;&#1103; 3</text><polygon fill="#F1F1F1" points="353.5,50,413.5,50,425.5,62,413.5,74,353.5,74,341.5,62,353.5,50" style="stroke:#181818;stroke-width:0.5;"/><text fill="#000000" font-family="sans-serif" font-size="11" lengthAdjust="spacing" textLength="42" x="387.5" y="84.2104">&#1048;&#1089;&#1090;&#1080;&#1085;&#1072;</text><text fill="#000000" font-family="sans-serif" font-size="11" lengthAdjust="spacing" textLength="60" x="353.5" y="65.8081">&#1059;&#1089;&#1083;&#1086;&#1074;&#1080;&#1077; n</text><rect fill="#F1F1F1" height="33.9688" rx="12.5" ry="12.5" style="stroke:#181818;stroke-width:0.5;" width="93" x="337" y="105.7104"/><text fill="#000000" font-family="sans-serif" font-size="12" lengthAdjust="spacing" textLength="73" x="347" y="126.8491">&#1044;&#1077;&#1081;&#1089;&#1090;&#1074;&#1080;&#1103; n</text><ellipse cx="242.5" cy="190.6792" fill="none" rx="11" ry="11" style="stroke:#222222;stroke-width:1.0;"/><ellipse cx="242.5" cy="190.6792" fill="#222222" rx="6" ry="6" style="stroke:#111111;stroke-width:1.0;"/><line style="stroke:#181818;stroke-width:1.0;" x1="62" x2="62" y1="74" y2="105.7104"/><polygon fill="#181818" points="58,95.7104,62,105.7104,66,95.7104,62,99.7104" style="stroke:#181818;stroke-width:1.0;"/><line style="stroke:#181818;stroke-width:1.0;" x1="62" x2="62" y1="139.6792" y2="159.6792"/><polygon fill="#181818" points="58,149.6792,62,159.6792,66,149.6792,62,153.6792" style="stroke:#181818;stroke-width:1.0;"/><line style="stroke:#181818;stroke-width:1.0;" x1="170.5" x2="170.5" y1="74" y2="105.7104"/><polygon fill="#181818" points="166.5,95.7104,170.5,105.7104,174.5,95.7104,170.5,99.7104" style="stroke:#181818;stroke-width:1.0;"/><line style="stroke:#181818;stroke-width:1.0;" x1="170.5" x2="170.5" y1="139.6792" y2="159.6792"/><polygon fill="#181818" points="166.5,149.6792,170.5,159.6792,174.5,149.6792,170.5,153.6792" style="stroke:#181818;stroke-width:1.0;"/><line style="stroke:#181818;stroke-width:1.0;" x1="274.5" x2="274.5" y1="74" y2="105.7104"/><polygon fill="#181818" points="270.5,95.7104,274.5,105.7104,278.5,95.7104,274.5,99.7104" style="stroke:#181818;stroke-width:1.0;"/><line style="stroke:#181818;stroke-width:1.0;" x1="274.5" x2="274.5" y1="139.6792" y2="159.6792"/><polygon fill="#181818" points="270.5,149.6792,274.5,159.6792,278.5,149.6792,274.5,153.6792" style="stroke:#181818;stroke-width:1.0;"/><line style="stroke:#181818;stroke-width:1.0;" x1="383.5" x2="383.5" y1="74" y2="105.7104"/><polygon fill="#181818" points="379.5,95.7104,383.5,105.7104,387.5,95.7104,383.5,99.7104" style="stroke:#181818;stroke-width:1.0;"/><line style="stroke:#181818;stroke-width:1.0;" x1="383.5" x2="383.5" y1="139.6792" y2="159.6792"/><polygon fill="#181818" points="379.5,149.6792,383.5,159.6792,387.5,149.6792,383.5,153.6792" style="stroke:#181818;stroke-width:1.0;"/><line style="stroke:#181818;stroke-width:1.0;" x1="104" x2="128.5" y1="62" y2="62"/><polygon fill="#181818" points="118.5,58,128.5,62,118.5,66,122.5,62" style="stroke:#181818;stroke-width:1.0;"/><line style="stroke:#181818;stroke-width:1.0;" x1="212.5" x2="250.5" y1="62" y2="62"/><polygon fill="#181818" points="240.5,58,250.5,62,240.5,66,244.5,62" style="stroke:#181818;stroke-width:1.0;"/><line style="stroke:#181818;stroke-width:1.0;" x1="298.5" x2="341.5" y1="62" y2="62"/><polygon fill="#181818" points="331.5,58,341.5,62,331.5,66,335.5,62" style="stroke:#181818;stroke-width:1.0;"/><line style="stroke:#181818;stroke-width:1.0;" x1="242.5" x2="242.5" y1="30" y2="35"/><line style="stroke:#181818;stroke-width:1.0;" x1="242.5" x2="62" y1="35" y2="35"/><line style="stroke:#181818;stroke-width:1.0;" x1="62" x2="62" y1="35" y2="50"/><polygon fill="#181818" points="58,40,62,50,66,40,62,44" style="stroke:#181818;stroke-width:1.0;"/><line style="stroke:#181818;stroke-width:1.0;" x1="425.5" x2="444" y1="62" y2="62"/><line style="stroke:#181818;stroke-width:1.0;" x1="444" x2="444" y1="62" y2="159.6792"/><polygon fill="#181818" points="440,149.6792,444,159.6792,448,149.6792,444,153.6792" style="stroke:#181818;stroke-width:1.0;"/><line style="stroke:#181818;stroke-width:1.0;" x1="62" x2="444" y1="159.6792" y2="159.6792"/><line style="stroke:#181818;stroke-width:1.0;" x1="242.5" x2="242.5" y1="159.6792" y2="179.6792"/><polygon fill="#181818" points="238.5,169.6792,242.5,179.6792,246.5,169.6792,242.5,173.6792" style="stroke:#181818;stroke-width:1.0;"/><!--SRC=[Aov9B2hXuifCKz2uiFXYuuNT5_PTs7HXnuMj2eQQ2YKPgNb0yHaN6oys0SNsNjYWoQMWO7LXoeMj5tQ21O5AB_Oh65fpfUOKfofWCSM8U5ECa4pHqzCZNgCnRklpY3Sb3sXANafc6XTNSKb-0G00]--></g></svg>