<?xml version="1.0" encoding="windows-1252" standalone="no"?>
<svg xmlns="http://www.w3.org/2000/svg" xmlns:xlink="http://www.w3.org/1999/xlink" contentStyleType="text/css" height="213px" preserveAspectRatio="none" style="width:642px;height:213px;background:#FFFFFF;" version="1.1" viewBox="0 0 642 213" width="642px" zoomAndPan="magnify"><defs/><g><ellipse cx="316" cy="20" fill="#222222" rx="10" ry="10" style="stroke:#222222;stroke-width:1.0;"/><polygon fill="#F1F1F1" points="32,50,92,50,104,62,92,74,32,74,20,62,32,50" style="stroke:#181818;stroke-width:0.5;"/><text fill="#000000" font-family="sans-serif" font-size="11" lengthAdjust="spacing" textLength="42" x="66" y="84.2104">&#1048;&#1089;&#1090;&#1080;&#1085;&#1072;</text><text fill="#000000" font-family="sans-serif" font-size="11" lengthAdjust="spacing" textLength="60" x="32" y="65.8081">&#1059;&#1089;&#1083;&#1086;&#1074;&#1080;&#1077; 1</text><rect fill="#F1F1F1" height="33.9688" rx="12.5" ry="12.5" style="stroke:#181818;stroke-width:0.5;" width="93" x="15.5" y="106.8047"/><text fill="#000000" font-family="sans-serif" font-size="12" lengthAdjust="spacing" textLength="73" x="25.5" y="127.9434">&#1044;&#1077;&#1081;&#1089;&#1090;&#1074;&#1080;&#1103; 1</text><polygon fill="#F1F1F1" points="140.5,50,200.5,50,212.5,62,200.5,74,140.5,74,128.5,62,140.5,50" style="stroke:#181818;stroke-width:0.5;"/><text fill="#000000" font-family="sans-serif" font-size="11" lengthAdjust="spacing" textLength="42" x="174.5" y="84.2104">&#1048;&#1089;&#1090;&#1080;&#1085;&#1072;</text><text fill="#000000" font-family="sans-serif" font-size="11" lengthAdjust="spacing" textLength="60" x="140.5" y="65.8081">&#1059;&#1089;&#1083;&#1086;&#1074;&#1080;&#1077; 2</text><rect fill="#F1F1F1" height="33.9688" rx="12.5" ry="12.5" style="stroke:#181818;stroke-width:0.5;" width="94" x="123.5" y="106.8047"/><text fill="#000000" font-family="sans-serif" font-size="12" lengthAdjust="spacing" textLength="74" x="133.5" y="127.9434">&#1044;&#1077;&#1081;&#1089;&#1090;&#1074;&#1080;&#1103; 2</text><polygon fill="#F1F1F1" points="262.5,50,286.5,50,298.5,62,286.5,74,262.5,74,250.5,62,262.5,50" style="stroke:#181818;stroke-width:0.5;"/><text fill="#000000" font-family="sans-serif" font-size="11" lengthAdjust="spacing" textLength="42" x="278.5" y="84.2104">&#1048;&#1089;&#1090;&#1080;&#1085;&#1072;</text><text fill="#000000" font-family="sans-serif" font-size="11" lengthAdjust="spacing" textLength="9" x="270" y="65.8081">...</text><rect fill="#F1F1F1" height="33.9688" rx="12.5" ry="12.5" style="stroke:#181818;stroke-width:0.5;" width="94" x="227.5" y="106.8047"/><text fill="#000000" font-family="sans-serif" font-size="12" lengthAdjust="spacing" textLength="74" x="237.5" y="127.9434">&#1044;&#1077;&#1081;&#1089;&#1090;&#1074;&#1080;&#1103; 3</text><polygon fill="#F1F1F1" points="358,50,418,50,430,62,418,74,358,74,346,62,358,50" style="stroke:#181818;stroke-width:0.5;"/><text fill="#000000" font-family="sans-serif" font-size="11" lengthAdjust="spacing" textLength="42" x="392" y="84.2104">&#1048;&#1089;&#1090;&#1080;&#1085;&#1072;</text><text fill="#000000" font-family="sans-serif" font-size="11" lengthAdjust="spacing" textLength="60" x="358" y="65.8081">&#1059;&#1089;&#1083;&#1086;&#1074;&#1080;&#1077; n</text><text fill="#000000" font-family="sans-serif" font-size="11" lengthAdjust="spacing" textLength="99" x="430" y="59.4058">&#1053;&#1077;&#1090; &#1089;&#1086;&#1074;&#1087;&#1072;&#1076;&#1077;&#1085;&#1080;&#1103;</text><rect fill="#F1F1F1" height="33.9688" rx="12.5" ry="12.5" style="stroke:#181818;stroke-width:0.5;" width="93" x="341.5" y="106.8047"/><text fill="#000000" font-family="sans-serif" font-size="12" lengthAdjust="spacing" textLength="73" x="351.5" y="127.9434">&#1044;&#1077;&#1081;&#1089;&#1090;&#1074;&#1080;&#1103; n</text><rect fill="#F1F1F1" height="33.9688" rx="12.5" ry="12.5" style="stroke:#181818;stroke-width:0.5;" width="177" x="454.5" y="103.4023"/><text fill="#000000" font-family="sans-serif" font-size="12" lengthAdjust="spacing" textLength="157" x="464.5" y="124.541">&#1044;&#1077;&#1081;&#1089;&#1090;&#1074;&#1080;&#1103; &#1087;&#1086; &#1091;&#1084;&#1086;&#1083;&#1095;&#1072;&#1085;&#1080;&#1102;</text><ellipse cx="316" cy="191.7734" fill="none" rx="11" ry="11" style="stroke:#222222;stroke-width:1.0;"/><ellipse cx="316" cy="191.7734" fill="#222222" rx="6" ry="6" style="stroke:#111111;stroke-width:1.0;"/><line style="stroke:#181818;stroke-width:1.0;" x1="62" x2="62" y1="74" y2="106.8047"/><polygon fill="#181818" points="58,96.8047,62,106.8047,66,96.8047,62,100.8047" style="stroke:#181818;stroke-width:1.0;"/><line style="stroke:#181818;stroke-width:1.0;" x1="62" x2="62" y1="140.7734" y2="160.7734"/><polygon fill="#181818" points="58,150.7734,62,160.7734,66,150.7734,62,154.7734" style="stroke:#181818;stroke-width:1.0;"/><line style="stroke:#181818;stroke-width:1.0;" x1="170.5" x2="170.5" y1="74" y2="106.8047"/><polygon fill="#181818" points="166.5,96.8047,170.5,106.8047,174.5,96.8047,170.5,100.8047" style="stroke:#181818;stroke-width:1.0;"/><line style="stroke:#181818;stroke-width:1.0;" x1="170.5" x2="170.5" y1="140.7734" y2="160.7734"/><polygon fill="#181818" points="166.5,150.7734,170.5,160.7734,174.5,150.7734,170.5,154.7734" style="stroke:#181818;stroke-width:1.0;"/><line style="stroke:#181818;stroke-width:1.0;" x1="274.5" x2="274.5" y1="74" y2="106.8047"/><polygon fill="#181818" points="270.5,96.8047,274.5,106.8047,278.5,96.8047,274.5,100.8047" style="stroke:#181818;stroke-width:1.0;"/><line style="stroke:#181818;stroke-width:1.0;" x1="274.5" x2="274.5" y1="140.7734" y2="160.7734"/><polygon fill="#181818" points="270.5,150.7734,274.5,160.7734,278.5,150.7734,274.5,154.7734" style="stroke:#181818;stroke-width:1.0;"/><line style="stroke:#181818;stroke-width:1.0;" x1="388" x2="388" y1="74" y2="106.8047"/><polygon fill="#181818" points="384,96.8047,388,106.8047,392,96.8047,388,100.8047" style="stroke:#181818;stroke-width:1.0;"/><line style="stroke:#181818;stroke-width:1.0;" x1="388" x2="388" y1="140.7734" y2="160.7734"/><polygon fill="#181818" points="384,150.7734,388,160.7734,392,150.7734,388,154.7734" style="stroke:#181818;stroke-width:1.0;"/><line style="stroke:#181818;stroke-width:1.0;" x1="104" x2="128.5" y1="62" y2="62"/><polygon fill="#181818" points="118.5,58,128.5,62,118.5,66,122.5,62" style="stroke:#181818;stroke-width:1.0;"/><line style="stroke:#181818;stroke-width:1.0;" x1="212.5" x2="250.5" y1="62" y2="62"/><polygon fill="#181818" points="240.5,58,250.5,62,240.5,66,244.5,62" style="stroke:#181818;stroke-width:1.0;"/><line style="stroke:#181818;stroke-width:1.0;" x1="298.5" x2="346" y1="62" y2="62"/><polygon fill="#181818" points="336,58,346,62,336,66,340,62" style="stroke:#181818;stroke-width:1.0;"/><line style="stroke:#181818;stroke-width:1.0;" x1="316" x2="316" y1="30" y2="35"/><line style="stroke:#181818;stroke-width:1.0;" x1="316" x2="62" y1="35" y2="35"/><line style="stroke:#181818;stroke-width:1.0;" x1="62" x2="62" y1="35" y2="50"/><polygon fill="#181818" points="58,40,62,50,66,40,62,44" style="stroke:#181818;stroke-width:1.0;"/><line style="stroke:#181818;stroke-width:1.0;" x1="430" x2="543" y1="62" y2="62"/><line style="stroke:#181818;stroke-width:1.0;" x1="543" x2="543" y1="62" y2="103.4023"/><polygon fill="#181818" points="539,93.4023,543,103.4023,547,93.4023,543,97.4023" style="stroke:#181818;stroke-width:1.0;"/><line style="stroke:#181818;stroke-width:1.0;" x1="543" x2="543" y1="137.3711" y2="160.7734"/><polygon fill="#181818" points="539,150.7734,543,160.7734,547,150.7734,543,154.7734" style="stroke:#181818;stroke-width:1.0;"/><line style="stroke:#181818;stroke-width:1.0;" x1="62" x2="543" y1="160.7734" y2="160.7734"/><line style="stroke:#181818;stroke-width:1.0;" x1="316" x2="316" y1="160.7734" y2="180.7734"/><polygon fill="#181818" points="312,170.7734,316,180.7734,320,170.7734,316,174.7734" style="stroke:#181818;stroke-width:1.0;"/><!--SRC=[ZOqn2i9044NxFSMKIHD8xFGqWXiCo2fcBv1Os6bZOPFA2mHnGOc9L_Xp8sV5mYB2jf_ttY_jV6kLAdAASE4A7GPSSOUZD2Qxr4RsCrTSozQZZHNH52SuF3wZe7oaTARqgjGqKid2AzbF9KcIS77o_zw4Lyot4g61uvgauoiljBW9sdjet1Hc8DxXAKB7Un4yV92UMHIvKgLTRzu0]--></g></svg>