<?xml version="1.0" encoding="windows-1252" standalone="no"?>
<svg xmlns="http://www.w3.org/2000/svg" xmlns:xlink="http://www.w3.org/1999/xlink" contentStyleType="text/css" height="178px" preserveAspectRatio="none" style="width:167px;height:178px;background:#FFFFFF;" version="1.1" viewBox="0 0 167 178" width="167px" zoomAndPan="magnify"><defs/><g><ellipse cx="88" cy="20" fill="#222222" rx="10" ry="10" style="stroke:#222222;stroke-width:1.0;"/><rect fill="#F1F1F1" height="33.9688" rx="12.5" ry="12.5" style="stroke:#181818;stroke-width:0.5;" width="82" x="47" y="110.8047"/><text fill="#000000" font-family="sans-serif" font-size="12" lengthAdjust="spacing" textLength="62" x="57" y="131.9434">&#1044;&#1077;&#1081;&#1089;&#1090;&#1074;&#1080;&#1103;</text><polygon fill="#F1F1F1" points="63.5,50,112.5,50,124.5,62,112.5,74,63.5,74,51.5,62,63.5,50" style="stroke:#181818;stroke-width:0.5;"/><text fill="#000000" font-family="sans-serif" font-size="11" lengthAdjust="spacing" textLength="42" x="92" y="84.2104">&#1048;&#1089;&#1090;&#1080;&#1085;&#1072;</text><text fill="#000000" font-family="sans-serif" font-size="11" lengthAdjust="spacing" textLength="49" x="63.5" y="65.8081">&#1059;&#1089;&#1083;&#1086;&#1074;&#1080;&#1077;</text><text fill="#000000" font-family="sans-serif" font-size="11" lengthAdjust="spacing" textLength="33" x="18.5" y="59.4058">&#1051;&#1086;&#1078;&#1100;</text><ellipse cx="24" cy="109" fill="none" rx="11" ry="11" style="stroke:#222222;stroke-width:1.0;"/><ellipse cx="24" cy="109" fill="#222222" rx="6" ry="6" style="stroke:#111111;stroke-width:1.0;"/><line style="stroke:#181818;stroke-width:1.0;" x1="88" x2="88" y1="74" y2="110.8047"/><polygon fill="#181818" points="84,100.8047,88,110.8047,92,100.8047,88,104.8047" style="stroke:#181818;stroke-width:1.0;"/><line style="stroke:#181818;stroke-width:1.0;" x1="88" x2="88" y1="144.7734" y2="154.7734"/><line style="stroke:#181818;stroke-width:1.0;" x1="88" x2="141" y1="154.7734" y2="154.7734"/><polygon fill="#181818" points="137,119.3867,141,109.3867,145,119.3867,141,115.3867" style="stroke:#181818;stroke-width:1.0;"/><line style="stroke:#181818;stroke-width:1.0;" x1="141" x2="141" y1="62" y2="154.7734"/><line style="stroke:#181818;stroke-width:1.0;" x1="141" x2="124.5" y1="62" y2="62"/><polygon fill="#181818" points="134.5,58,124.5,62,134.5,66,130.5,62" style="stroke:#181818;stroke-width:1.0;"/><line style="stroke:#181818;stroke-width:1.0;" x1="51.5" x2="24" y1="62" y2="62"/><line style="stroke:#181818;stroke-width:1.0;" x1="24" x2="24" y1="62" y2="98"/><polygon fill="#181818" points="20,88,24,98,28,88,24,92" style="stroke:#181818;stroke-width:1.0;"/><line style="stroke:#181818;stroke-width:1.0;" x1="88" x2="88" y1="30" y2="50"/><polygon fill="#181818" points="84,40,88,50,92,40,88,44" style="stroke:#181818;stroke-width:1.0;"/><!--SRC=[Aov9B2hXuYhFoCn9LT2uiFXYuuNT5_PTs7HXnuMjcWgPnK2n6HSRBpO1-NilRD3aKb2mkZ3bmjOBEy62G6KN-wsvKlDIO0RC1chUTh57aukhk2I_0000]--></g></svg>