<?xml version="1.0" encoding="windows-1252" standalone="no"?>
<svg xmlns="http://www.w3.org/2000/svg" xmlns:xlink="http://www.w3.org/1999/xlink" contentStyleType="text/css" height="224px" preserveAspectRatio="none" style="width:147px;height:224px;background:#FFFFFF;" version="1.1" viewBox="0 0 147 224" width="147px" zoomAndPan="magnify"><defs/><g><ellipse cx="56.5" cy="20" fill="#222222" rx="10" ry="10" style="stroke:#222222;stroke-width:1.0;"/><rect fill="#F1F1F1" height="33.9688" rx="12.5" ry="12.5" style="stroke:#181818;stroke-width:0.5;" width="82" x="15.5" y="94"/><text fill="#000000" font-family="sans-serif" font-size="12" lengthAdjust="spacing" textLength="62" x="25.5" y="115.1387">&#1044;&#1077;&#1081;&#1089;&#1090;&#1074;&#1080;&#1103;</text><polygon fill="#F1F1F1" points="56.5,50,68.5,62,56.5,74,44.5,62,56.5,50" style="stroke:#181818;stroke-width:0.5;"/><polygon fill="#F1F1F1" points="32,147.9688,81,147.9688,93,159.9688,81,171.9688,32,171.9688,20,159.9688,32,147.9688" style="stroke:#181818;stroke-width:0.5;"/><text fill="#000000" font-family="sans-serif" font-size="11" lengthAdjust="spacing" textLength="49" x="32" y="163.7769">&#1059;&#1089;&#1083;&#1086;&#1074;&#1080;&#1077;</text><text fill="#000000" font-family="sans-serif" font-size="11" lengthAdjust="spacing" textLength="42" x="93" y="157.3745">&#1048;&#1089;&#1090;&#1080;&#1085;&#1072;</text><ellipse cx="56.5" cy="202.9688" fill="none" rx="11" ry="11" style="stroke:#222222;stroke-width:1.0;"/><ellipse cx="56.5" cy="202.9688" fill="#222222" rx="6" ry="6" style="stroke:#111111;stroke-width:1.0;"/><line style="stroke:#181818;stroke-width:1.0;" x1="56.5" x2="56.5" y1="74" y2="94"/><polygon fill="#181818" points="52.5,84,56.5,94,60.5,84,56.5,88" style="stroke:#181818;stroke-width:1.0;"/><line style="stroke:#181818;stroke-width:1.0;" x1="93" x2="109.5" y1="159.9688" y2="159.9688"/><polygon fill="#181818" points="105.5,120.9844,109.5,110.9844,113.5,120.9844,109.5,116.9844" style="stroke:#181818;stroke-width:1.0;"/><line style="stroke:#181818;stroke-width:1.0;" x1="109.5" x2="109.5" y1="62" y2="159.9688"/><line style="stroke:#181818;stroke-width:1.0;" x1="109.5" x2="68.5" y1="62" y2="62"/><polygon fill="#181818" points="78.5,58,68.5,62,78.5,66,74.5,62" style="stroke:#181818;stroke-width:1.0;"/><line style="stroke:#181818;stroke-width:1.0;" x1="56.5" x2="56.5" y1="127.9688" y2="147.9688"/><polygon fill="#181818" points="52.5,137.9688,56.5,147.9688,60.5,137.9688,56.5,141.9688" style="stroke:#181818;stroke-width:1.0;"/><line style="stroke:#181818;stroke-width:1.0;" x1="56.5" x2="56.5" y1="30" y2="50"/><polygon fill="#181818" points="52.5,40,56.5,50,60.5,40,56.5,44" style="stroke:#181818;stroke-width:1.0;"/><line style="stroke:#181818;stroke-width:1.0;" x1="56.5" x2="56.5" y1="171.9688" y2="191.9688"/><polygon fill="#181818" points="52.5,181.9688,56.5,191.9688,60.5,181.9688,56.5,185.9688" style="stroke:#181818;stroke-width:1.0;"/><!--SRC=[Aov9B2hXuYfABKXDBE5IKB2wCEN2rWixBpPURBgmwSAEY_tMK3c5yepCd5G5ZGkBBpPUs7rX7qZsmbPDXSnYeDWCiFeT5_PUsA39nLLSaby00000]--></g></svg>