<?xml version="1.0" encoding="windows-1252" standalone="no"?>
<svg xmlns="http://www.w3.org/2000/svg" xmlns:xlink="http://www.w3.org/1999/xlink" contentStyleType="text/css" height="329px" preserveAspectRatio="none" style="width:262px;height:329px;background:#FFFFFF;" version="1.1" viewBox="0 0 262 329" width="262px" zoomAndPan="magnify"><defs/><g><ellipse cx="135.5" cy="20" fill="#222222" rx="10" ry="10" style="stroke:#222222;stroke-width:1.0;"/><rect fill="#F1F1F1" height="47.9375" rx="12.5" ry="12.5" style="stroke:#181818;stroke-width:0.5;" width="185" x="43" y="50"/><text fill="#000000" font-family="sans-serif" font-size="12" lengthAdjust="spacing" textLength="165" x="53" y="71.1387">&#1054;&#1073;&#1098;&#1103;&#1074;&#1083;&#1077;&#1085;&#1080;&#1077; &#1087;&#1077;&#1088;&#1077;&#1084;&#1077;&#1085;&#1085;&#1086;&#1081;</text><text fill="#000000" font-family="sans-serif" font-size="12" lengthAdjust="spacing" textLength="58" x="53" y="85.1074">&#1089;&#1095;&#1077;&#1090;&#1095;&#1080;&#1082;&#1072;</text><rect fill="#F1F1F1" height="33.9688" rx="12.5" ry="12.5" style="stroke:#181818;stroke-width:0.5;" width="82" x="94.5" y="178.7422"/><text fill="#000000" font-family="sans-serif" font-size="12" lengthAdjust="spacing" textLength="62" x="104.5" y="199.8809">&#1044;&#1077;&#1081;&#1089;&#1090;&#1074;&#1080;&#1103;</text><rect fill="#F1F1F1" height="47.9375" rx="12.5" ry="12.5" style="stroke:#181818;stroke-width:0.5;" width="177" x="47" y="247.7109"/><text fill="#000000" font-family="sans-serif" font-size="12" lengthAdjust="spacing" textLength="157" x="57" y="268.8496">&#1048;&#1079;&#1084;&#1077;&#1085;&#1077;&#1085;&#1080;&#1077; &#1087;&#1077;&#1088;&#1077;&#1084;&#1077;&#1085;&#1085;&#1086;&#1081;</text><text fill="#000000" font-family="sans-serif" font-size="12" lengthAdjust="spacing" textLength="58" x="57" y="282.8184">&#1089;&#1095;&#1077;&#1090;&#1095;&#1080;&#1082;&#1072;</text><polygon fill="#F1F1F1" points="111,117.9375,160,117.9375,172,129.9375,160,141.9375,111,141.9375,99,129.9375,111,117.9375" style="stroke:#181818;stroke-width:0.5;"/><text fill="#000000" font-family="sans-serif" font-size="11" lengthAdjust="spacing" textLength="42" x="139.5" y="152.1479">&#1048;&#1089;&#1090;&#1080;&#1085;&#1072;</text><text fill="#000000" font-family="sans-serif" font-size="11" lengthAdjust="spacing" textLength="49" x="111" y="133.7456">&#1059;&#1089;&#1083;&#1086;&#1074;&#1080;&#1077;</text><text fill="#000000" font-family="sans-serif" font-size="11" lengthAdjust="spacing" textLength="33" x="66" y="127.3433">&#1051;&#1086;&#1078;&#1100;</text><ellipse cx="24" cy="176.9375" fill="none" rx="11" ry="11" style="stroke:#222222;stroke-width:1.0;"/><ellipse cx="24" cy="176.9375" fill="#222222" rx="6" ry="6" style="stroke:#111111;stroke-width:1.0;"/><line style="stroke:#181818;stroke-width:1.0;" x1="135.5" x2="135.5" y1="30" y2="50"/><polygon fill="#181818" points="131.5,40,135.5,50,139.5,40,135.5,44" style="stroke:#181818;stroke-width:1.0;"/><line style="stroke:#181818;stroke-width:1.0;" x1="135.5" x2="135.5" y1="212.7109" y2="247.7109"/><polygon fill="#181818" points="131.5,237.7109,135.5,247.7109,139.5,237.7109,135.5,241.7109" style="stroke:#181818;stroke-width:1.0;"/><line style="stroke:#181818;stroke-width:1.0;" x1="135.5" x2="135.5" y1="141.9375" y2="178.7422"/><polygon fill="#181818" points="131.5,168.7422,135.5,178.7422,139.5,168.7422,135.5,172.7422" style="stroke:#181818;stroke-width:1.0;"/><line style="stroke:#181818;stroke-width:1.0;" x1="135.5" x2="135.5" y1="295.6484" y2="305.6484"/><line style="stroke:#181818;stroke-width:1.0;" x1="135.5" x2="236" y1="305.6484" y2="305.6484"/><polygon fill="#181818" points="232,228.793,236,218.793,240,228.793,236,224.793" style="stroke:#181818;stroke-width:1.0;"/><line style="stroke:#181818;stroke-width:1.0;" x1="236" x2="236" y1="129.9375" y2="305.6484"/><line style="stroke:#181818;stroke-width:1.0;" x1="236" x2="172" y1="129.9375" y2="129.9375"/><polygon fill="#181818" points="182,125.9375,172,129.9375,182,133.9375,178,129.9375" style="stroke:#181818;stroke-width:1.0;"/><line style="stroke:#181818;stroke-width:1.0;" x1="99" x2="24" y1="129.9375" y2="129.9375"/><line style="stroke:#181818;stroke-width:1.0;" x1="24" x2="24" y1="129.9375" y2="165.9375"/><polygon fill="#181818" points="20,155.9375,24,165.9375,28,155.9375,24,159.9375" style="stroke:#181818;stroke-width:1.0;"/><line style="stroke:#181818;stroke-width:1.0;" x1="135.5" x2="135.5" y1="97.9375" y2="117.9375"/><polygon fill="#181818" points="131.5,107.9375,135.5,117.9375,139.5,107.9375,135.5,111.9375" style="stroke:#181818;stroke-width:1.0;"/><!--SRC=[bOqz2i9058JxTuejpHMIgzW81Wn853TWQz888gIn20WsNY0AgucwyGhpRkImw05i1kPZVcmnMHKYCKwuw4vhNF64WqS7P_26qmtjAo2F0VqurrAtv1MrmmDj8hAUPVFKZ73MalM18wn79hDa3VCLlKSRYJ4n3Xph0sHCwoJ01lVlox_dQJxztH-PkUa-4h75Ola1]--></g></svg>